<svg width="160" height="160" viewBox="0 0 160 160" fill="none" xmlns="http://www.w3.org/2000/svg">
  <rect width="160" height="160" rx="80" fill="#111128"/>
  <rect x="8" y="8" width="144" height="144" rx="72" fill="url(#bg)"/>
  <circle cx="80" cy="62" r="27" fill="#E8EAF0"/>
  <path d="M34 132C40 103 58 90 80 90C102 90 120 103 126 132C114 144 99 152 80 152C61 152 46 144 34 132Z" fill="#E8EAF0"/>
  <path d="M49 42L80 24L111 42V77C111 97 98 113 80 119C62 113 49 97 49 77V42Z" fill="url(#shield)" fill-opacity="0.2"/>
  <defs>
    <linearGradient id="bg" x1="24" y1="18" x2="142" y2="146" gradientUnits="userSpaceOnUse">
      <stop stop-color="#6366F1"/>
      <stop offset="0.52" stop-color="#818CF8"/>
      <stop offset="1" stop-color="#EC4899"/>
    </linearGradient>
    <linearGradient id="shield" x1="49" y1="24" x2="112" y2="119" gradientUnits="userSpaceOnUse">
      <stop stop-color="#FFFFFF"/>
      <stop offset="1" stop-color="#7DD3FC"/>
    </linearGradient>
  </defs>
</svg>
